<?xml version="1.0" encoding="utf-8"?>
<!-- Generator: Adobe Illustrator 25.2.0, SVG Export Plug-In . SVG Version: 6.00 Build 0)  -->
<svg version="1.1" xmlns="http://www.w3.org/2000/svg" xmlns:xlink="http://www.w3.org/1999/xlink" x="0px" y="0px"
	 viewBox="0 0 1200 1200" style="enable-background:new 0 0 1200 1200;" xml:space="preserve">
<style type="text/css">
	.st0{fill:#E51836;}
	.st1{fill:url(#SVGID_1_);}
	.st2{fill:#FFFFFF;}
</style>
<g id="Capa_2">
</g>
<g id="Capa_1">
	<path class="st0" d="M401.55,1059h491.1c82.87,0,150.05-67.18,150.05-150.05V563.62H401.55c-82.87,0-150.05,67.18-150.05,150.05
		v195.28C251.5,991.82,318.68,1059,401.55,1059z"/>
	<path id="XMLID_14_" class="st0" d="M490.13,234.23h39.27c78.53,0,119.67,48.61,130.88,99.1c0,0,47.17-16.83,47.17-99.1h-91.83
		c0,0,29.2-22.96,35.31-52.77H548.09C546.22,181.47,497.61,180.01,490.13,234.23z"/>
	<path class="st0" d="M529.39,252.93H399.66c0,0,48.58,47.84,45.76,96.36c-2.83,48.52-30.78,53.54-94.37,126.08
		c-63.59,72.55-79.42,121.86-79.42,121.86s4.31-4.69,6.55-6.93c7.73-7.73,16.24-14.75,25.29-20.87
		c9.14-6.17,18.91-11.48,29.05-15.76c21.09-8.92,43.48-13.45,66.55-13.45h249.99V389.43C647.19,249.19,529.39,252.93,529.39,252.93z
		 M517.8,345.84c-13.7,0-24.81-11.11-24.81-24.81s11.11-24.81,24.81-24.81c13.7,0,24.81,11.11,24.81,24.81
		S531.5,345.84,517.8,345.84z"/>
	<linearGradient id="SVGID_1_" gradientUnits="userSpaceOnUse" x1="157.2958" y1="196.9421" x2="392.8185" y2="196.9421">
		<stop  offset="0" style="stop-color:#82C335"/>
		<stop  offset="1" style="stop-color:#1D9651"/>
	</linearGradient>
	<path class="st1" d="M392.82,252.88l-45.71-67.9C328.6,157.49,297.63,141,264.49,141H157.3l42.03,65.86
		c18.29,28.67,49.95,46.02,83.96,46.02H392.82z"/>
	<polygon class="st2" points="837.64,657.36 837.64,683.73 799.49,683.73 799.49,794.59 761.49,794.59 761.49,683.73 723.34,683.73 
		723.34,657.36 	"/>
	<polygon class="st2" points="562.55,938.41 562.55,964.79 477.14,964.79 477.14,827.56 514.35,827.56 514.35,938.41 	"/>
	<path class="st2" d="M438.51,757.53c-2.98,30.15-28.89,40.51-58.57,40.51c-29.68,0-39.72-10.05-39.72-10.05v-30.46
		c33.13,27.63,58.88,11.31,62.18,5.81c3.54-5.91,7.69-14.6-22.45-25.91c-30.15-11.31-39.72-24.81-39.72-45.69
		c0-20.88,24.18-36.43,51.82-36.43s35.64,8.79,35.64,8.79v28.42c-19.31-16.02-48.99-16.33-52.76-5.02
		c-3.77,11.31,10.05,19.31,25.12,24.34S441.49,727.38,438.51,757.53z"/>
	<path class="st2" d="M710.77,693.78v100.8h-34.39v-78.77c0-13.29-2.04-33.34-19-33.65s-25.75,13.14-25.75,13.14v99.29h-34.86
		V663.64l34.86-8.32v17.79c0,0,22.14-17.32,44.75-17.79S710.77,670.86,710.77,693.78z"/>
	<path class="st2" d="M520.79,655.31c-31.4,0-49.55,11.31-49.55,11.31v20.97c8.19-3.99,19.14-7.85,32.91-9.66
		c34.54-4.55,32.82,15.86,32.82,15.86v9.26c0,0-51.34,1.1-72.23,23.55c-20.88,22.45-10.21,48.2,2.51,59.82s41.61,18.63,69.71-8.43
		v16.59h34.39v-100.8C571.34,668.82,552.19,655.31,520.79,655.31z M536.96,760.2c-10.21,18.68-54.48,15.7-47.1-10.36
		c7.38-26.06,47.1-28.16,47.1-28.16V760.2z"/>
	<path class="st2" d="M905.47,655.31c-31.4,0-49.55,11.31-49.55,11.31v20.97c8.19-3.99,19.14-7.85,32.91-9.66
		c34.54-4.55,32.82,15.86,32.82,15.86v9.26c0,0-51.34,1.1-72.23,23.55c-20.88,22.45-10.21,48.2,2.51,59.82
		c12.72,11.62,41.61,18.63,69.71-8.43v16.59h34.39v-100.8C956.03,668.82,936.88,655.31,905.47,655.31z M921.65,760.2
		c-10.21,18.68-54.48,15.7-47.1-10.36s47.1-28.16,47.1-28.16V760.2z"/>
	<path class="st2" d="M905.47,825.52c-31.4,0-49.55,11.31-49.55,11.31v20.97c8.19-3.99,19.14-7.85,32.91-9.66
		c34.54-4.55,32.82,15.86,32.82,15.86v9.26c0,0-51.34,1.1-72.23,23.55s-10.21,48.2,2.51,59.82c12.72,11.62,41.61,18.63,69.71-8.43
		v16.59h34.39v-100.8C956.03,839.02,936.88,825.52,905.47,825.52z M921.65,930.4c-10.21,18.68-54.48,15.7-47.1-10.36
		s47.1-28.16,47.1-28.16V930.4z"/>
	<path class="st2" d="M821.78,863.99v100.8H787.4v-78.77c0-13.29-2.04-33.34-19-33.65s-25.75,13.14-25.75,13.14v99.29h-34.86V833.84
		l34.86-8.32v17.79c0,0,22.14-17.32,44.75-17.79C810.01,825.05,821.78,841.06,821.78,863.99z"/>
	<path class="st2" d="M462.69,882.67c0-28.89-22.3-58.25-58.88-58.25s-68.3,29.36-68.3,67.67s20.73,72.7,65.32,74.9
		c44.59,2.2,54.32-13.82,54.32-13.82v-22.59c-8.34,5.72-23.53,12.99-45.21,11.13c-28.15-2.42-36.88-24.38-39.17-40.04h91.92V882.67z
		 M370.67,882.67c1.95-15.67,9.24-37.53,31.1-37.53c26.85,0,25.7,37.53,25.7,37.53H370.67z"/>
	<path class="st2" d="M690.21,882.67c0-28.89-22.3-58.25-58.88-58.25s-68.3,29.36-68.3,67.67s20.73,72.7,65.32,74.9
		c44.59,2.2,54.32-13.82,54.32-13.82v-22.59c-8.34,5.72-23.53,12.99-45.21,11.13c-28.15-2.42-36.88-24.38-39.17-40.04h91.92V882.67z
		 M598.18,882.67c1.95-15.67,9.24-37.53,31.1-37.53c26.85,0,25.7,37.53,25.7,37.53H598.18z"/>
</g>
</svg>
